<?xml version="1.0" encoding="utf-8"?>
<!-- Generator: Adobe Illustrator 25.2.0, SVG Export Plug-In . SVG Version: 6.00 Build 0)  -->
<svg version="1.1" id="Layer_1" xmlns="http://www.w3.org/2000/svg" xmlns:xlink="http://www.w3.org/1999/xlink" x="0px" y="0px"
	 viewBox="0 0 351.91 84.38" style="enable-background:new 0 0 351.91 84.38;" xml:space="preserve">
<style type="text/css">
	.st0{fill:#E42028;}
	.st1{fill:#231F20;}
	.st2{fill:#FFFFFF;}
</style>
<path class="st0" d="M346.51,82.07H220.67c-1.21,0-2.19-0.98-2.19-2.19V5.53c0-1.21,0.98-2.19,2.19-2.19h125.83
	c1.21,0,2.19,0.98,2.19,2.19v74.35C348.7,81.09,347.72,82.07,346.51,82.07z"/>
<g>
	<path class="st1" d="M42.41,74.98h-9.28V43.14c0-1.68,0.19-4.01,0.58-7.01l-8.33,32.96h-4.91L12.1,36.12
		c0.38,3.05,0.58,5.39,0.58,7.01v31.84H3.4V10.43h9.12l10.15,35.68c0.11,0.39,0.19,1.36,0.25,2.93c0-0.69,0.08-1.66,0.25-2.93
		L33.3,10.43h9.12V74.98z"/>
	<path class="st1" d="M82.67,69.08c0,3.93-1.95,5.9-5.86,5.9H55.86c-3.82,0-5.73-1.97-5.73-5.9V16.37c0-3.96,1.91-5.94,5.73-5.94
		h20.95c3.9,0,5.86,1.98,5.86,5.94V69.08z M73.02,66.69V18.72H59.78v47.97H73.02z"/>
	<path class="st1" d="M117.82,74.98H88.16v-5.16l18.07-50.69H89.6v-8.7h28.13V16L99.71,66.28h18.11V74.98z"/>
	<path class="st1" d="M156.09,74.98h-9.57l-1.94-12.25H132.5l-1.94,12.25h-9.53v-0.16l12.5-64.47h10.15L156.09,74.98z M143.23,54.44
		l-4.7-29.12l-6.02,37.41L143.23,54.44z"/>
	<path class="st1" d="M171.31,74.98h-9.65V10.43h9.65V74.98z"/>
	<path class="st0" d="M144.59,62.73H132.5l10.72-8.29L144.59,62.73z"/>
	<path class="st1" d="M211.78,74.98h-10.64l-12.25-28.79v28.79h-9.65V10.43h9.65v27.31l10.73-27.31h10.56v0.45l-13.12,30.65
		L211.78,74.98z"/>
</g>
<g>
	<path class="st2" d="M253.33,61.05c0,3.04-1,5.53-2.99,7.47c-2,1.95-4.51,2.92-7.55,2.92h-13.15V13.97h13.15
		c3.06,0,5.58,0.97,7.57,2.92c1.98,1.95,2.97,4.44,2.97,7.47V61.05z M248.23,60.53V24.8c0-1.88-0.59-3.41-1.78-4.57
		c-1.19-1.16-2.72-1.74-4.61-1.74h-7.09v48.44h6.79c1.98,0,3.59-0.57,4.83-1.71C247.61,64.08,248.23,62.52,248.23,60.53z"/>
	<path class="st2" d="M278.91,71.44h-18.88V13.97h18.66v4.52h-13.55v21.45h12.34v4.59h-12.34v22.4h13.77V71.44z"/>
	<path class="st2" d="M307.65,67.36c0,1.2-0.39,2.18-1.18,2.94c-0.78,0.76-1.77,1.14-2.97,1.14h-14.8c-1.2,0-2.18-0.38-2.94-1.14
		c-0.76-0.76-1.14-1.74-1.14-2.94V18.04c0-1.2,0.38-2.18,1.14-2.94c0.76-0.76,1.74-1.14,2.94-1.14h14.8c1.2,0,2.19,0.38,2.97,1.14
		c0.78,0.76,1.18,1.74,1.18,2.94v13.37h-5.14V18.48h-12.78v48.44h12.78V52.78h5.14V67.36z"/>
	<path class="st2" d="M338.59,67.36c0,1.2-0.39,2.18-1.16,2.94c-0.77,0.76-1.76,1.14-2.96,1.14H318.4c-1.2,0-2.18-0.38-2.94-1.14
		c-0.76-0.76-1.14-1.74-1.14-2.94V18.04c0-1.2,0.38-2.18,1.14-2.94c0.76-0.76,1.74-1.14,2.94-1.14h16.09c1.2,0,2.18,0.38,2.96,1.14
		c0.77,0.76,1.16,1.74,1.16,2.94V67.36z M333.49,66.92V18.48h-14.06v48.44H333.49z"/>
</g>
</svg>
